<mxfile host="65bd71144e" modified="2020-12-15T11:33:44.124Z" agent="5.0 (Windows NT 10.0; Win64; x64) AppleWebKit/537.36 (KHTML, like Gecko) Code/1.52.0 Chrome/83.0.4103.122 Electron/9.3.5 Safari/537.36" etag="RmA165RnAo5qNrjxV8w2" version="13.10.0" type="embed">
    <diagram id="b-k9cm1zWYV5Z6PMXZTu" name="第 1 页">
        <mxGraphModel dx="864" dy="514" grid="1" gridSize="10" guides="1" tooltips="1" connect="1" arrows="1" fold="1" page="1" pageScale="1" pageWidth="827" pageHeight="1169" math="0" shadow="0">
            <root>
                <mxCell id="0"/>
                <mxCell id="1" parent="0"/>
                <mxCell id="2" value="将输入的正则表达式转化为解析树的后序遍历序列" style="rounded=1;whiteSpace=wrap;html=1;" parent="1" vertex="1">
                    <mxGeometry x="230" width="120" height="60" as="geometry"/>
                </mxCell>
                <mxCell id="3" value="将解析树的后序遍历学列转化为NFA" style="rounded=1;whiteSpace=wrap;html=1;" parent="1" vertex="1">
                    <mxGeometry x="230" y="90" width="120" height="60" as="geometry"/>
                </mxCell>
                <mxCell id="4" value="构造NFA开始状态&lt;br&gt;的ε闭包并为之创建一个DFA状态" style="rounded=1;whiteSpace=wrap;html=1;" parent="1" vertex="1">
                    <mxGeometry x="230" y="180" width="120" height="60" as="geometry"/>
                </mxCell>
                <mxCell id="6" value="从DFAlist中&lt;br&gt;读取DFA状态" style="rounded=1;whiteSpace=wrap;html=1;" parent="1" vertex="1">
                    <mxGeometry x="230" y="270" width="120" height="60" as="geometry"/>
                </mxCell>
                <mxCell id="7" value="是否为NULL&lt;br&gt;DFA状态" style="rhombus;whiteSpace=wrap;html=1;" parent="1" vertex="1">
                    <mxGeometry x="230" y="360" width="120" height="100" as="geometry"/>
                </mxCell>
                <mxCell id="9" value="读取当前DFA状态的NFAlist" style="rounded=1;whiteSpace=wrap;html=1;" parent="1" vertex="1">
                    <mxGeometry x="460" y="380" width="120" height="60" as="geometry"/>
                </mxCell>
                <mxCell id="10" value="是否为NULL&lt;br&gt;NFA状态" style="rhombus;whiteSpace=wrap;html=1;" parent="1" vertex="1">
                    <mxGeometry x="460" y="470" width="120" height="100" as="geometry"/>
                </mxCell>
                <mxCell id="12" value="&lt;div style=&quot;font-family: &amp;#34;consolas&amp;#34; , &amp;#34;courier new&amp;#34; , monospace ; font-size: 14px ; line-height: 19px&quot;&gt;读取DFA状态的转换链表&lt;/div&gt;" style="rounded=1;whiteSpace=wrap;html=1;" parent="1" vertex="1">
                    <mxGeometry x="240" y="490" width="120" height="60" as="geometry"/>
                </mxCell>
                <mxCell id="13" value="" style="endArrow=classic;html=1;exitX=1;exitY=0.5;exitDx=0;exitDy=0;entryX=0;entryY=0.5;entryDx=0;entryDy=0;" parent="1" source="7" target="9" edge="1">
                    <mxGeometry width="50" height="50" relative="1" as="geometry">
                        <mxPoint x="350" y="480" as="sourcePoint"/>
                        <mxPoint x="400" y="430" as="targetPoint"/>
                    </mxGeometry>
                </mxCell>
                <mxCell id="14" value="否" style="text;html=1;align=center;verticalAlign=middle;resizable=0;points=[];autosize=1;" parent="1" vertex="1">
                    <mxGeometry x="345" y="390" width="30" height="20" as="geometry"/>
                </mxCell>
                <mxCell id="15" value="程序结束返回&lt;br&gt;DFA指针" style="rounded=1;whiteSpace=wrap;html=1;" parent="1" vertex="1">
                    <mxGeometry x="60" y="490" width="120" height="60" as="geometry"/>
                </mxCell>
                <mxCell id="16" value="" style="endArrow=classic;html=1;exitX=0;exitY=0.5;exitDx=0;exitDy=0;entryX=0.5;entryY=0;entryDx=0;entryDy=0;" parent="1" source="7" target="15" edge="1">
                    <mxGeometry width="50" height="50" relative="1" as="geometry">
                        <mxPoint x="350" y="480" as="sourcePoint"/>
                        <mxPoint x="400" y="430" as="targetPoint"/>
                        <Array as="points">
                            <mxPoint x="120" y="410"/>
                        </Array>
                    </mxGeometry>
                </mxCell>
                <mxCell id="17" value="是" style="text;html=1;align=center;verticalAlign=middle;resizable=0;points=[];autosize=1;" parent="1" vertex="1">
                    <mxGeometry x="205" y="390" width="30" height="20" as="geometry"/>
                </mxCell>
                <mxCell id="18" value="" style="endArrow=classic;html=1;exitX=0.5;exitY=1;exitDx=0;exitDy=0;entryX=0.5;entryY=0;entryDx=0;entryDy=0;" parent="1" source="9" target="10" edge="1">
                    <mxGeometry width="50" height="50" relative="1" as="geometry">
                        <mxPoint x="350" y="570" as="sourcePoint"/>
                        <mxPoint x="400" y="520" as="targetPoint"/>
                    </mxGeometry>
                </mxCell>
                <mxCell id="19" value="" style="endArrow=classic;html=1;exitX=0;exitY=0.5;exitDx=0;exitDy=0;entryX=0.5;entryY=0;entryDx=0;entryDy=0;" parent="1" source="10" target="12" edge="1">
                    <mxGeometry width="50" height="50" relative="1" as="geometry">
                        <mxPoint x="350" y="570" as="sourcePoint"/>
                        <mxPoint x="440" y="540" as="targetPoint"/>
                        <Array as="points">
                            <mxPoint x="440" y="520"/>
                            <mxPoint x="440" y="470"/>
                            <mxPoint x="300" y="470"/>
                        </Array>
                    </mxGeometry>
                </mxCell>
                <mxCell id="20" value="是" style="text;html=1;align=center;verticalAlign=middle;resizable=0;points=[];autosize=1;" parent="1" vertex="1">
                    <mxGeometry x="435" y="500" width="30" height="20" as="geometry"/>
                </mxCell>
                <mxCell id="21" value="" style="endArrow=classic;html=1;exitX=1;exitY=0.5;exitDx=0;exitDy=0;entryX=0.5;entryY=0;entryDx=0;entryDy=0;" parent="1" source="10" target="23" edge="1">
                    <mxGeometry width="50" height="50" relative="1" as="geometry">
                        <mxPoint x="350" y="570" as="sourcePoint"/>
                        <mxPoint x="630" y="520" as="targetPoint"/>
                        <Array as="points">
                            <mxPoint x="590" y="520"/>
                            <mxPoint x="590" y="500"/>
                            <mxPoint x="590" y="450"/>
                            <mxPoint x="690" y="450"/>
                        </Array>
                    </mxGeometry>
                </mxCell>
                <mxCell id="22" value="否" style="text;html=1;align=center;verticalAlign=middle;resizable=0;points=[];autosize=1;" parent="1" vertex="1">
                    <mxGeometry x="560" y="490" width="30" height="20" as="geometry"/>
                </mxCell>
                <mxCell id="23" value="是否为空转换&lt;br&gt;或者接受状态" style="rhombus;whiteSpace=wrap;html=1;" vertex="1" parent="1">
                    <mxGeometry x="630" y="470" width="120" height="100" as="geometry"/>
                </mxCell>
                <mxCell id="25" value="" style="endArrow=classic;html=1;exitX=1;exitY=0.5;exitDx=0;exitDy=0;entryX=1;entryY=0.5;entryDx=0;entryDy=0;" edge="1" parent="1" source="23" target="9">
                    <mxGeometry width="50" height="50" relative="1" as="geometry">
                        <mxPoint x="520" y="590" as="sourcePoint"/>
                        <mxPoint x="570" y="540" as="targetPoint"/>
                        <Array as="points">
                            <mxPoint x="810" y="520"/>
                            <mxPoint x="810" y="410"/>
                        </Array>
                    </mxGeometry>
                </mxCell>
                <mxCell id="26" value="是" style="text;html=1;align=center;verticalAlign=middle;resizable=0;points=[];autosize=1;" vertex="1" parent="1">
                    <mxGeometry x="745" y="500" width="30" height="20" as="geometry"/>
                </mxCell>
                <mxCell id="27" value="构造下一状态的&lt;br&gt;ε闭包" style="rounded=1;whiteSpace=wrap;html=1;" vertex="1" parent="1">
                    <mxGeometry x="630" y="610" width="120" height="60" as="geometry"/>
                </mxCell>
                <mxCell id="28" value="" style="endArrow=classic;html=1;exitX=0;exitY=0.5;exitDx=0;exitDy=0;entryX=0.5;entryY=0;entryDx=0;entryDy=0;" edge="1" parent="1" source="23" target="27">
                    <mxGeometry width="50" height="50" relative="1" as="geometry">
                        <mxPoint x="520" y="590" as="sourcePoint"/>
                        <mxPoint x="570" y="540" as="targetPoint"/>
                        <Array as="points">
                            <mxPoint x="600" y="520"/>
                            <mxPoint x="600" y="590"/>
                            <mxPoint x="690" y="590"/>
                        </Array>
                    </mxGeometry>
                </mxCell>
                <mxCell id="29" value="否" style="text;html=1;align=center;verticalAlign=middle;resizable=0;points=[];autosize=1;" vertex="1" parent="1">
                    <mxGeometry x="605" y="500" width="30" height="20" as="geometry"/>
                </mxCell>
                <mxCell id="30" value="&lt;span style=&quot;font-family: &amp;#34;consolas&amp;#34; , &amp;#34;courier new&amp;#34; , monospace ; font-size: 14px&quot;&gt;&lt;font color=&quot;#ffffff&quot;&gt;当前DFA状态&lt;br&gt;的转换链表中是否已经存在&lt;br&gt;该NFA状态的转换&lt;/font&gt;&lt;/span&gt;" style="rhombus;whiteSpace=wrap;html=1;" vertex="1" parent="1">
                    <mxGeometry x="595" y="700" width="190" height="100" as="geometry"/>
                </mxCell>
                <mxCell id="31" value="" style="endArrow=classic;html=1;exitX=0.5;exitY=1;exitDx=0;exitDy=0;entryX=0.5;entryY=0;entryDx=0;entryDy=0;" edge="1" parent="1" source="27" target="30">
                    <mxGeometry width="50" height="50" relative="1" as="geometry">
                        <mxPoint x="620" y="670" as="sourcePoint"/>
                        <mxPoint x="670" y="620" as="targetPoint"/>
                    </mxGeometry>
                </mxCell>
                <mxCell id="32" value="" style="endArrow=classic;html=1;exitX=1;exitY=0.5;exitDx=0;exitDy=0;entryX=0.5;entryY=0;entryDx=0;entryDy=0;" edge="1" parent="1" source="30" target="37">
                    <mxGeometry width="50" height="50" relative="1" as="geometry">
                        <mxPoint x="620" y="840" as="sourcePoint"/>
                        <mxPoint x="830" y="750" as="targetPoint"/>
                        <Array as="points">
                            <mxPoint x="810" y="750"/>
                        </Array>
                    </mxGeometry>
                </mxCell>
                <mxCell id="33" value="是" style="text;html=1;align=center;verticalAlign=middle;resizable=0;points=[];autosize=1;" vertex="1" parent="1">
                    <mxGeometry x="785" y="730" width="30" height="20" as="geometry"/>
                </mxCell>
                <mxCell id="34" value="" style="endArrow=classic;html=1;exitX=0;exitY=0.5;exitDx=0;exitDy=0;entryX=0.5;entryY=0;entryDx=0;entryDy=0;" edge="1" parent="1" source="30" target="36">
                    <mxGeometry width="50" height="50" relative="1" as="geometry">
                        <mxPoint x="620" y="840" as="sourcePoint"/>
                        <mxPoint x="530" y="750" as="targetPoint"/>
                        <Array as="points">
                            <mxPoint x="570" y="750"/>
                        </Array>
                    </mxGeometry>
                </mxCell>
                <mxCell id="35" value="否" style="text;html=1;align=center;verticalAlign=middle;resizable=0;points=[];autosize=1;" vertex="1" parent="1">
                    <mxGeometry x="565" y="730" width="30" height="20" as="geometry"/>
                </mxCell>
                <mxCell id="36" value="&lt;div style=&quot;font-family: &amp;#34;consolas&amp;#34; , &amp;#34;courier new&amp;#34; , monospace ; font-size: 14px ; line-height: 19px&quot;&gt;&lt;font color=&quot;#ffffff&quot;&gt;创建一个转换并将这个转换插入到转换链表的开始位置&lt;/font&gt;&lt;/div&gt;" style="rounded=1;whiteSpace=wrap;html=1;" vertex="1" parent="1">
                    <mxGeometry x="510" y="800" width="120" height="60" as="geometry"/>
                </mxCell>
                <mxCell id="37" value="&lt;div style=&quot;font-family: &amp;#34;consolas&amp;#34; , &amp;#34;courier new&amp;#34; , monospace ; font-size: 14px ; line-height: 19px&quot;&gt;&lt;font color=&quot;#ffffff&quot;&gt;把ε-闭包合并到已存在的转换中&lt;/font&gt;&lt;/div&gt;" style="rounded=1;whiteSpace=wrap;html=1;" vertex="1" parent="1">
                    <mxGeometry x="750" y="800" width="120" height="60" as="geometry"/>
                </mxCell>
                <mxCell id="38" value="" style="endArrow=classic;html=1;exitX=0.5;exitY=1;exitDx=0;exitDy=0;entryX=1;entryY=0.5;entryDx=0;entryDy=0;" edge="1" parent="1" source="36" target="9">
                    <mxGeometry width="50" height="50" relative="1" as="geometry">
                        <mxPoint x="620" y="1000" as="sourcePoint"/>
                        <mxPoint x="670" y="950" as="targetPoint"/>
                        <Array as="points">
                            <mxPoint x="570" y="880"/>
                            <mxPoint x="880" y="880"/>
                            <mxPoint x="880" y="410"/>
                        </Array>
                    </mxGeometry>
                </mxCell>
                <mxCell id="39" value="" style="endArrow=classic;html=1;exitX=0.5;exitY=1;exitDx=0;exitDy=0;entryX=1;entryY=0.5;entryDx=0;entryDy=0;" edge="1" parent="1" source="37" target="9">
                    <mxGeometry width="50" height="50" relative="1" as="geometry">
                        <mxPoint x="620" y="1000" as="sourcePoint"/>
                        <mxPoint x="670" y="950" as="targetPoint"/>
                        <Array as="points">
                            <mxPoint x="810" y="880"/>
                            <mxPoint x="880" y="880"/>
                            <mxPoint x="880" y="410"/>
                        </Array>
                    </mxGeometry>
                </mxCell>
                <mxCell id="40" value="是否NULL&lt;br&gt;转换" style="rhombus;whiteSpace=wrap;html=1;" vertex="1" parent="1">
                    <mxGeometry x="240" y="585" width="120" height="100" as="geometry"/>
                </mxCell>
                <mxCell id="41" value="" style="endArrow=classic;html=1;exitX=0.5;exitY=1;exitDx=0;exitDy=0;entryX=0.5;entryY=0;entryDx=0;entryDy=0;" edge="1" parent="1" source="12" target="40">
                    <mxGeometry width="50" height="50" relative="1" as="geometry">
                        <mxPoint x="380" y="590" as="sourcePoint"/>
                        <mxPoint x="430" y="540" as="targetPoint"/>
                    </mxGeometry>
                </mxCell>
                <mxCell id="42" value="" style="endArrow=classic;html=1;exitX=0;exitY=0.5;exitDx=0;exitDy=0;entryX=0;entryY=0.5;entryDx=0;entryDy=0;" edge="1" parent="1" source="40" target="6">
                    <mxGeometry width="50" height="50" relative="1" as="geometry">
                        <mxPoint x="380" y="590" as="sourcePoint"/>
                        <mxPoint x="430" y="540" as="targetPoint"/>
                        <Array as="points">
                            <mxPoint x="10" y="635"/>
                            <mxPoint x="10" y="300"/>
                        </Array>
                    </mxGeometry>
                </mxCell>
                <mxCell id="43" value="是" style="text;html=1;align=center;verticalAlign=middle;resizable=0;points=[];autosize=1;" vertex="1" parent="1">
                    <mxGeometry x="210" y="610" width="30" height="20" as="geometry"/>
                </mxCell>
                <mxCell id="45" value="" style="endArrow=classic;html=1;exitX=1;exitY=0.5;exitDx=0;exitDy=0;entryX=0.5;entryY=0;entryDx=0;entryDy=0;" edge="1" parent="1" source="40" target="49">
                    <mxGeometry width="50" height="50" relative="1" as="geometry">
                        <mxPoint x="360" y="680" as="sourcePoint"/>
                        <mxPoint x="390" y="685" as="targetPoint"/>
                        <Array as="points">
                            <mxPoint x="390" y="635"/>
                            <mxPoint x="390" y="710"/>
                            <mxPoint x="300" y="710"/>
                        </Array>
                    </mxGeometry>
                </mxCell>
                <mxCell id="46" value="否" style="text;html=1;align=center;verticalAlign=middle;resizable=0;points=[];autosize=1;" vertex="1" parent="1">
                    <mxGeometry x="350" y="610" width="30" height="20" as="geometry"/>
                </mxCell>
                <mxCell id="49" value="&lt;div style=&quot;font-family: &amp;#34;consolas&amp;#34; , &amp;#34;courier new&amp;#34; , monospace ; font-size: 14px ; line-height: 19px&quot;&gt;&lt;font color=&quot;#ffffff&quot;&gt;转换中的NFA状态&lt;/font&gt;&lt;/div&gt;&lt;div style=&quot;font-family: &amp;#34;consolas&amp;#34; , &amp;#34;courier new&amp;#34; , monospace ; font-size: 14px ; line-height: 19px&quot;&gt;&lt;font color=&quot;#ffffff&quot;&gt;集合是否为某一个DFA状态中NFA状态集合的子集&lt;/font&gt;&lt;/div&gt;" style="rhombus;whiteSpace=wrap;html=1;" vertex="1" parent="1">
                    <mxGeometry x="192.5" y="730" width="215" height="120" as="geometry"/>
                </mxCell>
                <mxCell id="50" value="&lt;div style=&quot;font-family: &amp;#34;consolas&amp;#34; , &amp;#34;courier new&amp;#34; , monospace ; font-size: 14px ; line-height: 19px&quot;&gt;&lt;font color=&quot;#ffffff&quot;&gt;创建一个新的&amp;nbsp;DFA&amp;nbsp;状态并加入&amp;nbsp;DFA&amp;nbsp;线性表中&lt;/font&gt;&lt;/div&gt;" style="rounded=1;whiteSpace=wrap;html=1;" vertex="1" parent="1">
                    <mxGeometry x="120" y="870" width="120" height="60" as="geometry"/>
                </mxCell>
                <mxCell id="51" value="&lt;div style=&quot;font-family: &amp;#34;consolas&amp;#34; , &amp;#34;courier new&amp;#34; , monospace ; font-size: 14px ; line-height: 19px&quot;&gt;&lt;font color=&quot;#ffffff&quot;&gt;将转换的DFA转台下标赋值为父集合的下标&lt;/font&gt;&lt;/div&gt;" style="rounded=1;whiteSpace=wrap;html=1;" vertex="1" parent="1">
                    <mxGeometry x="360" y="870" width="120" height="60" as="geometry"/>
                </mxCell>
                <mxCell id="52" value="" style="endArrow=classic;html=1;exitX=0;exitY=0.5;exitDx=0;exitDy=0;entryX=0.5;entryY=0;entryDx=0;entryDy=0;" edge="1" parent="1" source="49" target="50">
                    <mxGeometry width="50" height="50" relative="1" as="geometry">
                        <mxPoint x="400" y="760" as="sourcePoint"/>
                        <mxPoint x="450" y="710" as="targetPoint"/>
                        <Array as="points">
                            <mxPoint x="180" y="790"/>
                        </Array>
                    </mxGeometry>
                </mxCell>
                <mxCell id="53" value="否" style="text;html=1;align=center;verticalAlign=middle;resizable=0;points=[];autosize=1;" vertex="1" parent="1">
                    <mxGeometry x="175" y="770" width="30" height="20" as="geometry"/>
                </mxCell>
                <mxCell id="54" value="" style="endArrow=classic;html=1;exitX=1;exitY=0.5;exitDx=0;exitDy=0;entryX=0.5;entryY=0;entryDx=0;entryDy=0;" edge="1" parent="1" source="49" target="51">
                    <mxGeometry width="50" height="50" relative="1" as="geometry">
                        <mxPoint x="400" y="760" as="sourcePoint"/>
                        <mxPoint x="450" y="710" as="targetPoint"/>
                        <Array as="points">
                            <mxPoint x="420" y="790"/>
                        </Array>
                    </mxGeometry>
                </mxCell>
                <mxCell id="55" value="是" style="text;html=1;align=center;verticalAlign=middle;resizable=0;points=[];autosize=1;" vertex="1" parent="1">
                    <mxGeometry x="399" y="770" width="30" height="20" as="geometry"/>
                </mxCell>
                <mxCell id="56" value="" style="endArrow=classic;html=1;exitX=0.5;exitY=1;exitDx=0;exitDy=0;entryX=1;entryY=0.5;entryDx=0;entryDy=0;" edge="1" parent="1" source="51" target="12">
                    <mxGeometry width="50" height="50" relative="1" as="geometry">
                        <mxPoint x="330" y="850" as="sourcePoint"/>
                        <mxPoint x="380" y="800" as="targetPoint"/>
                        <Array as="points">
                            <mxPoint x="420" y="980"/>
                            <mxPoint x="500" y="980"/>
                            <mxPoint x="500" y="680"/>
                            <mxPoint x="420" y="680"/>
                            <mxPoint x="420" y="520"/>
                        </Array>
                    </mxGeometry>
                </mxCell>
                <mxCell id="57" value="" style="endArrow=classic;html=1;entryX=1;entryY=0.5;entryDx=0;entryDy=0;" edge="1" parent="1" target="12">
                    <mxGeometry width="50" height="50" relative="1" as="geometry">
                        <mxPoint x="170" y="930" as="sourcePoint"/>
                        <mxPoint x="380" y="880" as="targetPoint"/>
                        <Array as="points">
                            <mxPoint x="170" y="980"/>
                            <mxPoint x="500" y="980"/>
                            <mxPoint x="500" y="680"/>
                            <mxPoint x="420" y="680"/>
                            <mxPoint x="420" y="520"/>
                        </Array>
                    </mxGeometry>
                </mxCell>
                <mxCell id="58" value="" style="endArrow=classic;html=1;exitX=0.5;exitY=1;exitDx=0;exitDy=0;entryX=0.5;entryY=0;entryDx=0;entryDy=0;" edge="1" parent="1" source="6" target="7">
                    <mxGeometry width="50" height="50" relative="1" as="geometry">
                        <mxPoint x="220" y="390" as="sourcePoint"/>
                        <mxPoint x="270" y="340" as="targetPoint"/>
                    </mxGeometry>
                </mxCell>
                <mxCell id="59" value="" style="endArrow=classic;html=1;exitX=0.5;exitY=1;exitDx=0;exitDy=0;entryX=0.5;entryY=0;entryDx=0;entryDy=0;" edge="1" parent="1" source="4" target="6">
                    <mxGeometry width="50" height="50" relative="1" as="geometry">
                        <mxPoint x="220" y="390" as="sourcePoint"/>
                        <mxPoint x="270" y="340" as="targetPoint"/>
                    </mxGeometry>
                </mxCell>
                <mxCell id="60" value="" style="endArrow=classic;html=1;exitX=0.5;exitY=1;exitDx=0;exitDy=0;entryX=0.5;entryY=0;entryDx=0;entryDy=0;" edge="1" parent="1" source="3" target="4">
                    <mxGeometry width="50" height="50" relative="1" as="geometry">
                        <mxPoint x="220" y="190" as="sourcePoint"/>
                        <mxPoint x="270" y="140" as="targetPoint"/>
                    </mxGeometry>
                </mxCell>
                <mxCell id="61" value="" style="endArrow=classic;html=1;exitX=0.5;exitY=1;exitDx=0;exitDy=0;entryX=0.5;entryY=0;entryDx=0;entryDy=0;" edge="1" parent="1" source="2" target="3">
                    <mxGeometry width="50" height="50" relative="1" as="geometry">
                        <mxPoint x="210" y="140" as="sourcePoint"/>
                        <mxPoint x="270" y="140" as="targetPoint"/>
                    </mxGeometry>
                </mxCell>
            </root>
        </mxGraphModel>
    </diagram>
</mxfile>